<?xml version="1.0" encoding="UTF-8" standalone="no"?>
<!-- Generator: Adobe Illustrator 23.0.3, SVG Export Plug-In . SVG Version: 6.00 Build 0)  -->

<svg
   xmlns:dc="http://purl.org/dc/elements/1.1/"
   xmlns:cc="http://creativecommons.org/ns#"
   xmlns:rdf="http://www.w3.org/1999/02/22-rdf-syntax-ns#"
   xmlns:svg="http://www.w3.org/2000/svg"
   xmlns="http://www.w3.org/2000/svg"
   xmlns:sodipodi="http://sodipodi.sourceforge.net/DTD/sodipodi-0.dtd"
   xmlns:inkscape="http://www.inkscape.org/namespaces/inkscape"
   version="1.2"
   id="Layer_1"
   x="0px"
   y="0px"
   viewBox="0 0 200 200"
   xml:space="preserve"
   sodipodi:docname="thaumiel-icon.svg"
   inkscape:version="0.92.4 (5da689c313, 2019-01-14)"><metadata
   id="metadata31"><rdf:RDF><cc:Work
       rdf:about=""><dc:format>image/svg+xml</dc:format><dc:type
         rdf:resource="http://purl.org/dc/dcmitype/StillImage" /></cc:Work></rdf:RDF></metadata><defs
   id="defs29">
	
	
	
	
	
	
	
	
	
	
	
</defs><sodipodi:namedview
   pagecolor="#ffffff"
   bordercolor="#666666"
   borderopacity="1"
   objecttolerance="10"
   gridtolerance="10"
   guidetolerance="10"
   inkscape:pageopacity="0"
   inkscape:pageshadow="2"
   inkscape:window-width="1920"
   inkscape:window-height="1017"
   id="namedview27"
   showgrid="false"
   inkscape:zoom="1.18"
   inkscape:cx="41.091499"
   inkscape:cy="126.28565"
   inkscape:window-x="-8"
   inkscape:window-y="-8"
   inkscape:window-maximized="1"
   inkscape:current-layer="Layer_1"
   inkscape:snap-page="true"
   inkscape:snap-global="true" />
<rect
   style="opacity:1;fill:#0087bd;fill-opacity:1;fill-rule:nonzero;stroke:none;stroke-width:14;stroke-linecap:round;stroke-linejoin:miter;stroke-miterlimit:4;stroke-dasharray:none;stroke-dashoffset:0;stroke-opacity:1;paint-order:normal"
   id="rect4541"
   width="200"
   height="200"
   x="0"
   y="0"
   ry="0" /><ellipse
   style="opacity:1;fill:#ffffff;fill-opacity:1;fill-rule:nonzero;stroke:none;stroke-width:17.10923386;stroke-linecap:round;stroke-linejoin:miter;stroke-miterlimit:4;stroke-dasharray:none;stroke-dashoffset:0;stroke-opacity:1;paint-order:normal"
   id="path861"
   cx="99.116096"
   cy="95.972885"
   rx="30.544914"
   ry="31.569492" /><path
   style="opacity:1;fill:#ffffff;fill-opacity:1;fill-rule:nonzero;stroke:none;stroke-width:5.61519909;stroke-linecap:round;stroke-linejoin:miter;stroke-miterlimit:4;stroke-dasharray:none;stroke-dashoffset:0;stroke-opacity:1;paint-order:normal"
   d="m 118.97799,165.62088 c -3.51133,-1.44443 -5.02518,-2.52856 -8.1517,-5.83777 -4.32354,-4.57617 -6.42714,-9.27494 -9.1639,-20.46916 -1.35296,-5.534 -1.44985,-6.58162 -1.44985,-15.67573 v -9.74539 l 4.68399,-0.17162 c 5.36718,-0.19664 5.52879,-0.3093 6.95566,-4.84867 1.73378,-5.51579 0.53149,-5.24169 9.8605,-2.24793 10.894,3.49599 20.47912,9.00248 27.43341,15.76005 4.43327,4.30786 7.52258,11.75137 7.52258,18.12523 0,2.6287 -2.80831,11.44775 -4.64148,14.57582 -1.98207,3.38214 -6.12224,7.12711 -9.93036,8.98245 -4.13787,2.01601 -8.048,2.71403 -15.14192,2.7031 -4.28541,-0.007 -5.68829,-0.20892 -7.97693,-1.15038 z"
   id="path859"
   inkscape:connector-curvature="0" /><path
   style="opacity:1;fill:#ffffff;fill-opacity:1;fill-rule:nonzero;stroke:none;stroke-width:5.43014145;stroke-linecap:round;stroke-linejoin:miter;stroke-miterlimit:4;stroke-dasharray:none;stroke-dashoffset:0;stroke-opacity:1;paint-order:normal"
   d="m 137.96931,109.68006 c -4.93638,-0.68157 -8.94087,-1.65446 -15.98943,-3.88463 -7.44354,-2.35515 -7.4603,-2.37702 -5.79193,-7.55713 1.3116,-4.072386 1.24564,-4.236667 -2.85798,-7.117675 -1.97335,-1.385423 -2.94969,-2.39434 -2.94969,-3.048098 0,-1.573358 9.14462,-13.305876 13.67372,-17.543338 5.09265,-4.76472 11.80696,-9.428702 15.44977,-10.731912 3.36551,-1.204009 10.84031,-1.668126 14.43832,-0.896491 8.69093,1.863872 16.26622,9.244482 18.97437,18.48675 1.37089,4.678518 1.1476,9.668333 -0.68579,15.325065 -2.91826,9.004009 -7.48347,13.544549 -16.3541,16.265709 -3.17566,0.97417 -13.11367,1.36362 -17.90726,0.70175 z"
   id="path857"
   inkscape:connector-curvature="0" /><path
   style="opacity:1;fill:#ffffff;fill-opacity:1;fill-rule:nonzero;stroke:none;stroke-width:5.24373484;stroke-linecap:round;stroke-linejoin:miter;stroke-miterlimit:4;stroke-dasharray:none;stroke-dashoffset:0;stroke-opacity:1;paint-order:normal"
   d="M 92.530812,85.22647 C 91.290211,84.753938 84.131854,74.475892 81.603413,69.536791 78.786305,64.033807 76.545276,57.836842 75.743536,53.332876 74.022901,43.666803 78.331465,33.938542 86.790673,28.389661 c 4.006552,-2.62813 6.887793,-3.463287 12.775213,-3.703028 4.837554,-0.19699 5.638734,-0.10852 8.719224,0.962767 4.15886,1.446307 6.31397,2.872767 10.34327,6.846151 4.98479,4.915613 7.29085,11.272232 6.68988,18.440549 -0.34089,4.06625 -3.12811,12.521347 -5.92872,17.984924 -3.13735,6.120536 -10.10886,15.962151 -11.44562,16.157692 -0.64317,0.09408 -2.2149,-0.659762 -4.19174,-2.01047 -3.46612,-2.368296 -3.49791,-2.368199 -6.738516,0.02094 -2.585516,1.906197 -3.69755,2.436371 -4.482852,2.13726 z"
   id="path855"
   inkscape:connector-curvature="0" /><path
   style="opacity:1;fill:#ffffff;fill-opacity:1;fill-rule:nonzero;stroke:none;stroke-width:5.2930336;stroke-linecap:round;stroke-linejoin:miter;stroke-miterlimit:4;stroke-dasharray:none;stroke-dashoffset:0;stroke-opacity:1;paint-order:normal"
   d="m 46.095557,108.48047 c -3.696985,-0.94016 -7.370412,-2.93017 -10.225233,-5.53931 -3.534589,-3.23042 -5.163021,-5.744224 -6.824733,-10.535316 -3.280209,-9.45759 -1.029804,-19.057305 6.150801,-26.23791 7.915842,-7.915843 18.55794,-9.674672 28.418984,-4.696834 4.049516,2.04419 9.574166,6.386257 14.075941,11.062899 4.530749,4.706748 11.76372,14.435464 11.55151,15.537378 -0.07777,0.403808 -1.448998,1.680161 -3.047184,2.836341 -1.598188,1.156178 -3.031496,2.556196 -3.185133,3.111147 -0.153635,0.554951 0.203662,2.508667 0.793992,4.34159 0.800805,2.486415 0.947834,3.531545 0.579058,4.116175 -0.54329,0.8613 -9.303398,3.85391 -15.576408,5.32119 -5.111366,1.19557 -19.047489,1.61445 -22.711595,0.68265 z"
   id="path853"
   inkscape:connector-curvature="0" /><path
   style="opacity:1;fill:#ffffff;fill-opacity:1;fill-rule:nonzero;stroke:none;stroke-width:5.23766184;stroke-linecap:round;stroke-linejoin:miter;stroke-miterlimit:4;stroke-dasharray:none;stroke-dashoffset:0;stroke-opacity:1;paint-order:normal"
   d="m 65.07313,163.60549 c -4.883237,-1.34807 -10.275397,-4.8732 -13.080341,-8.5513 -3.950812,-5.18064 -6.044554,-13.39536 -4.986615,-19.56479 0.749185,-4.36891 2.958779,-8.6956 6.222842,-12.18517 3.066053,-3.27788 10.314315,-8.3744 15.888269,-11.17161 4.898277,-2.45814 15.762669,-6.18678 17.071562,-5.85893 0.755206,0.18916 1.252622,1.0177 2.022938,3.36959 1.477355,4.5106 1.76056,4.73552 5.962507,4.73552 2.130798,0 3.751337,0.21986 4.0858,0.55432 0.716489,0.71649 0.755079,14.56499 0.05462,19.60111 -0.734252,5.2791 -2.544764,11.83121 -4.34729,15.73254 -2.858116,6.18601 -8.841195,11.32367 -15.446405,13.26381 -3.006091,0.88296 -10.37218,0.92401 -13.447886,0.0749 z"
   id="path851"
   inkscape:connector-curvature="0" /><path
   style="fill:none"
   inkscape:connector-curvature="0"
   id="path2"
   d="m 94.7,112.4 h 11.1 c 0.7,0 1.2,-0.8 0.7,-1.5 -1.9,-2.6 -3.7,-5.1 -5.6,-7.7 -0.4,-0.5 -1.1,-0.5 -1.5,0 -1.9,2.6 -3.7,5.1 -5.6,7.7 -0.3,0.7 0.2,1.5 0.9,1.5 z" /><path
   style="fill:none"
   inkscape:connector-curvature="0"
   id="path4"
   d="m 111.2,108.8 c 1.1,-3.5 2.3,-7.1 3.4,-10.6 0.2,-0.7 -0.4,-1.4 -1.2,-1.2 -3,1 -6,1.9 -9,2.9 -0.6,0.2 -0.8,0.9 -0.5,1.4 1.9,2.6 3.7,5.1 5.6,7.7 0.5,0.7 1.4,0.6 1.7,-0.2 z" /><path
   style="fill:none"
   inkscape:connector-curvature="0"
   id="path6"
   d="m 32.6,94.4 c 1.4,2.8 3.3,5.3 5.7,7.3 v 0 c 0.9,0.8 3.8,3 7.8,4.4 2.1,0.7 5,1.1 8.9,1.1 0.5,0 1,0 1.5,0 6.1,-0.1 12.1,-1.2 17.9,-3.1 l 6.9,-2.3 c 1,-0.3 1.5,-1.4 1.2,-2.3 -0.4,-1.2 -0.8,-2.5 -1.2,-3.7 -0.4,-1.2 -1,-2.5 0.2,-3.5 0.7,-0.6 2.8,-2.1 4.4,-3.2 0.8,-0.6 1,-1.8 0.4,-2.6 L 82,80.5 C 78.3,75.4 73.9,70.8 68.8,67 65.4,64.5 62.6,62.9 60.4,62.2 58.3,61.6 55.9,60.9 53,60.9 c -3.4,0 -6.9,1 -10.6,3 -0.5,0.2 -0.9,0.5 -1.2,0.7 l -0.1,0.1 -0.1,0.1 -0.1,0.1 -2.1,1.6 -0.1,0.1 -0.1,0.1 c -3.3,2.8 -5.7,6.4 -7,10.5 -1.1,3.4 -1.4,7.1 -0.9,10.6 0.1,0.5 0.3,1.1 0.4,1.6 z" /><path
   style="fill:none"
   inkscape:connector-curvature="0"
   id="path8"
   d="m 73.1,162.2 h 0.2 c 0.4,0 0.9,-0.1 1.4,-0.1 3.2,-0.4 6.2,-1.5 8.9,-3.2 0.4,-0.2 3.7,-2.3 6.5,-6 1.2,-1.6 2.4,-4.2 3.6,-7.5 2.1,-6.3 3.1,-13 3.1,-19.7 V 118 c 0,-1 -0.8,-1.8 -1.8,-1.8 h -4.2 c -1.3,0 -2.4,0 -2.9,-1.4 -0.4,-1 -1.1,-3.3 -1.7,-5 -0.3,-1 -1.4,-1.5 -2.3,-1.2 l -5.7,1.8 c -5.1,1.7 -10,4 -14.6,6.9 -5.1,3.3 -8.8,6.3 -10.5,8.8 -2.5,3.6 -5.7,8.2 -3.9,17.5 0.1,0.5 0.2,1 0.3,1.4 v 0.2 0.1 0.1 l 0.8,2.5 v 0.1 l 0.1,0.1 c 1.6,3.9 4.3,7.3 7.7,9.9 3.5,2.5 7.5,4 11.8,4.3 h 0.1 0.1 1.9 1 z" /><path
   style="fill:none"
   inkscape:connector-curvature="0"
   id="path10"
   d="m 84.9,32.6 c -0.2,0.1 -0.3,0.3 -0.5,0.4 -2.4,2.3 -4.2,5 -5.4,7.9 -0.2,0.4 -1.6,4.1 -1.7,8.7 -0.1,2.6 0.8,6.5 2.5,11.2 2,5.5 4.8,10.7 8.3,15.5 l 4.2,5.7 c 0.6,0.9 1.8,1 2.7,0.3 0.9,-0.6 1.7,-1.2 2.6,-1.9 1,-0.7 2.2,-2.1 3.7,-1.4 0.8,0.4 3,2.1 4.6,3.3 0.8,0.6 2,0.5 2.6,-0.4 l 4.1,-5.7 c 3.5,-4.8 6.3,-10 8.3,-15.5 1.7,-4.7 2.6,-8.6 2.5,-11.2 -0.1,-4.5 -0.2,-10 -7.2,-16.6 -0.2,-0.2 -0.3,-0.3 -0.5,-0.4 L 112.3,30 c -0.2,-0.1 -0.4,-0.3 -0.6,-0.4 -3.5,-2 -7.4,-3 -11.4,-3 v 0 c -4,0 -7.9,1.1 -11.4,3 -0.2,0.1 -0.4,0.3 -0.6,0.4 z" /><path
   style="fill:none"
   inkscape:connector-curvature="0"
   id="path12"
   d="m 85.9,98.3 c 1.1,3.5 2.3,7.1 3.4,10.6 0.2,0.7 1.2,0.9 1.6,0.3 1.9,-2.6 3.7,-5.1 5.6,-7.7 0.4,-0.5 0.1,-1.2 -0.5,-1.4 l -9,-2.9 c -0.6,-0.3 -1.3,0.4 -1.1,1.1 z" /><path
   style="fill:none"
   inkscape:connector-curvature="0"
   id="path14"
   d="m 97.4,96.5 c 0.6,0.2 1.2,-0.2 1.2,-0.9 0,-3.2 0,-6.3 0,-9.5 0,-0.7 -0.8,-1.2 -1.4,-0.7 l -9,6.5 c -0.6,0.4 -0.5,1.4 0.3,1.6 2.9,1.1 5.9,2.1 8.9,3 z" /><path
   style="fill:none"
   inkscape:connector-curvature="0"
   id="path16"
   d="m 103.5,96.5 9,-2.9 c 0.7,-0.2 0.9,-1.2 0.3,-1.6 -3,-2.2 -6,-4.4 -9,-6.5 -0.6,-0.4 -1.4,0 -1.5,0.7 0,3.2 0,6.3 0,9.5 0,0.6 0.6,1 1.2,0.8 z" /><path
   style="fill:none"
   inkscape:connector-curvature="0"
   id="path18"
   d="m 150.6,148 2,-6.2 c 0.2,-2.4 0,-4.7 -0.6,-7.1 -0.1,-0.4 -1.1,-4.3 -3.7,-8.1 -2.4,-3.5 -8.9,-8.2 -18,-13.2 -0.4,-0.2 -0.7,-0.4 -1.1,-0.5 l -13.6,-4.4 c -0.1,0 -0.2,0 -0.2,0.1 -0.3,0.8 -1.4,4.3 -2,6.1 -0.4,1.1 -0.9,1.9 -2.2,2 -2.3,0.1 -4.6,0.1 -6.9,0.1 -0.1,0 -0.2,0.1 -0.2,0.2 v 15.6 c 0,0.4 0,0.9 0.1,1.3 1.9,9.5 4.3,16.6 6.8,19.9 2.3,3 5.1,6.6 11.7,8.4 h 8.4 c 8.9,0 16.8,-5.7 19.5,-14.2 z" /><path
   style="fill:none"
   inkscape:connector-curvature="0"
   id="path20"
   d="m 170.5,84.3 c 0,-2.4 -0.3,-4.9 -1.1,-7.2 -1.3,-4.1 -3.8,-7.7 -7,-10.5 l -0.1,-0.1 -0.1,-0.1 -2.1,-1.6 -0.1,-0.1 -0.1,-0.1 -0.1,-0.1 c -0.4,-0.2 -0.8,-0.5 -1.2,-0.7 -2.9,-1.5 -5.9,-2.5 -9.1,-2.7 -0.1,0 -0.6,0 -1.3,0 -1.8,0 -4.6,0.2 -7.6,1.1 -2.5,0.8 -6,2.9 -10,6 -4.6,3.6 -8.7,7.9 -12.1,12.6 l -4,5.5 c -0.6,0.8 -0.4,2 0.4,2.6 0.8,0.6 1.6,1.1 2.4,1.7 0.9,0.6 2.5,1.5 2.8,2.7 0.1,0.5 -0.1,0.9 -0.2,1.4 -0.5,1.6 -1,3.1 -1.5,4.7 -0.3,1 0.2,2 1.2,2.3 l 7,2.3 c 5.8,1.9 11.9,3 18,3.1 0.5,0 1,0 1.5,0 3.9,0 6.8,-0.4 8.9,-1.1 3.9,-1.4 8.8,-3.1 12.7,-10.3 l 2.1,-6.6 c 0.3,-1.5 0.6,-3.1 0.7,-4.8 z" /><path
   style="fill:#010101"
   d="M 100.24219 18.878906 C 94.55306 18.900993 88.869323 20.671444 84 24.199219 L 34 60.400391 C 24.2 67.500391 20.200391 80.000391 23.900391 91.400391 L 42.900391 150.19922 C 46.600391 161.69922 57.300391 169.5 69.400391 169.5 L 100.24219 169.5 L 131.08398 169.5 C 143.18398 169.5 153.88398 161.69922 157.58398 150.19922 L 176.58398 91.400391 C 180.28398 80.000391 176.28438 67.500391 166.48438 60.400391 L 116.48438 24.199219 C 111.61505 20.671444 105.93132 18.900996 100.24219 18.878906 z M 100.24219 26.902344 C 104.22163 26.912088 108.10111 27.910182 111.58398 29.900391 C 111.78398 30.000391 111.98359 30.200781 112.18359 30.300781 L 115.58398 32.800781 C 115.78398 32.900781 115.88398 32.999219 116.08398 33.199219 C 118.48398 35.499219 120.28437 38.099609 121.48438 41.099609 C 121.58437 41.499609 123.08359 45.200781 123.18359 49.800781 C 123.28359 52.400781 122.38359 56.3 120.68359 61 C 118.68359 66.5 115.88477 71.7 112.38477 76.5 L 108.18359 82.199219 C 107.48359 82.999219 106.28437 83.2 105.48438 82.5 C 104.58437 81.8 103.78477 81.199609 102.88477 80.599609 C 102.07208 80.082443 101.20438 79.242122 100.24219 79.078125 C 99.28 79.242122 98.412299 80.082443 97.599609 80.599609 C 96.699609 81.199609 95.9 81.8 95 82.5 C 94.2 83.2 93.000781 82.999219 92.300781 82.199219 L 88.099609 76.5 C 84.599609 71.7 81.800781 66.5 79.800781 61 C 78.100781 56.3 77.200781 52.400781 77.300781 49.800781 C 77.400781 45.200781 78.9 41.499609 79 41.099609 C 80.2 38.099609 82.000391 35.499219 84.400391 33.199219 C 84.600391 32.999219 84.700391 32.900781 84.900391 32.800781 L 88.300781 30.300781 C 88.500781 30.200781 88.700391 30.000391 88.900391 29.900391 C 92.383255 27.910182 96.26275 26.912088 100.24219 26.902344 z M 52.800781 60.800781 C 55.700781 60.800781 58.099219 61.499609 60.199219 62.099609 C 62.399219 62.799609 65.299609 64.400391 68.599609 66.900391 C 73.699609 70.700391 78.100781 75.300391 81.800781 80.400391 L 86.099609 86.300781 C 86.699609 87.100781 86.499219 88.300391 85.699219 88.900391 C 84.199219 90.000391 82.100781 91.499609 81.300781 92.099609 C 80.100781 93.099609 80.699609 94.399609 81.099609 95.599609 C 81.499609 96.799609 81.900781 98.100781 82.300781 99.300781 C 82.600781 100.30078 82.099609 101.29961 81.099609 101.59961 L 74.199219 103.90039 C 68.399219 105.80039 62.400781 106.9 56.300781 107 L 54.800781 107 C 50.900781 107 48.000391 106.60039 45.900391 105.90039 C 42.100391 104.70039 39.200781 102.49922 38.300781 101.69922 C 35.900781 99.699218 33.999609 97.200391 32.599609 94.400391 L 30.900391 89.300781 C 30.700391 88.800781 30.6 88.199219 30.5 87.699219 C 30 84.199219 30.200391 80.499609 31.400391 77.099609 C 32.700391 72.999609 35.200391 69.399609 38.400391 66.599609 L 38.5 66.5 L 38.599609 66.400391 L 40.699219 64.800781 L 40.800781 64.699219 L 40.900391 64.599609 L 41 64.5 C 41.4 64.3 41.799219 64.000781 42.199219 63.800781 C 45.899219 61.800781 49.400781 60.800781 52.800781 60.800781 z M 147.68359 60.800781 C 151.08359 60.800781 154.58516 61.800781 158.28516 63.800781 C 158.68516 64.000781 159.08437 64.3 159.48438 64.5 L 159.58398 64.599609 L 159.68359 64.699219 L 159.78516 64.800781 L 161.88477 66.400391 L 161.98438 66.5 L 162.08398 66.599609 C 165.28398 69.399609 167.78398 72.999609 169.08398 77.099609 C 170.28398 80.499609 170.48438 84.199219 169.98438 87.699219 C 169.88438 88.199219 169.78398 88.800781 169.58398 89.300781 L 167.88477 94.400391 C 166.48477 97.200391 164.58359 99.699218 162.18359 101.69922 C 161.28359 102.49922 158.38398 104.70039 154.58398 105.90039 C 152.48398 106.60039 149.58359 107 145.68359 107 L 144.18359 107 C 138.08359 106.9 132.08516 105.80039 126.28516 103.90039 L 119.38477 101.59961 C 118.38477 101.29961 117.88359 100.30078 118.18359 99.300781 C 118.58359 98.100781 118.98477 96.799609 119.38477 95.599609 C 119.78477 94.399609 120.38359 93.099609 119.18359 92.099609 C 118.38359 91.499609 116.28516 90.000391 114.78516 88.900391 C 113.98516 88.300391 113.78477 87.100781 114.38477 86.300781 L 118.68359 80.400391 C 122.38359 75.300391 126.78477 70.700391 131.88477 66.900391 C 135.18477 64.400391 138.08516 62.799609 140.28516 62.099609 C 142.38516 61.499609 144.78359 60.800781 147.68359 60.800781 z M 97.685547 85.341797 C 98.187109 85.318359 98.674609 85.674219 98.599609 86.199219 L 98.599609 95.699219 C 98.599609 96.299219 98.000391 96.799609 97.400391 96.599609 C 94.400391 95.599609 91.400391 94.699219 88.400391 93.699219 C 87.700391 93.399219 87.599219 92.4 88.199219 92 L 97.199219 85.5 C 97.349219 85.4 97.518359 85.349609 97.685547 85.341797 z M 102.79883 85.341797 C 102.96602 85.349609 103.13516 85.4 103.28516 85.5 L 112.28516 92 C 112.88516 92.4 112.78398 93.399219 112.08398 93.699219 C 109.08398 94.699219 106.08398 95.599609 103.08398 96.599609 C 102.48398 96.799609 101.88477 96.299219 101.88477 95.699219 L 101.88477 86.199219 C 101.80977 85.674219 102.29727 85.318357 102.79883 85.341797 z M 86.910156 96.964844 C 87.002734 96.963477 87.099219 96.975 87.199219 97 L 96.099609 100 C 96.699609 100.2 96.899609 100.90039 96.599609 101.40039 C 94.699609 104.00039 92.9 106.49961 91 109.09961 C 90.6 109.69961 89.600391 109.60078 89.400391 108.80078 C 88.300391 105.30078 87.1 101.69922 86 98.199219 C 85.825 97.586719 86.262109 96.974414 86.910156 96.964844 z M 113.57422 96.964844 C 114.22227 96.974414 114.65937 97.586719 114.48438 98.199219 C 113.38437 101.69922 112.18398 105.30078 111.08398 108.80078 C 110.88398 109.60078 109.88438 109.69961 109.48438 109.09961 C 107.58438 106.49961 105.78477 104.00039 103.88477 101.40039 C 103.58477 100.90039 103.78477 100.2 104.38477 100 L 113.28516 97 C 113.38516 96.975 113.48162 96.963444 113.57422 96.964844 z M 100.24219 102.95117 C 100.47929 102.98011 100.71149 103.08418 100.88477 103.30078 C 102.78477 105.90078 104.58437 108.4 106.48438 111 C 106.98438 111.6 106.48516 112.4 105.78516 112.5 L 100.24219 112.5 L 94.699219 112.5 C 93.999219 112.4 93.5 111.6 94 111 C 95.9 108.4 97.699609 105.90078 99.599609 103.30078 C 99.772891 103.08418 100.00509 102.98011 100.24219 102.95117 z M 84.738281 108.41992 C 85.455469 108.48086 86.075781 108.94922 86.300781 109.69922 C 86.800781 111.39922 87.6 113.69922 88 114.69922 C 88.6 116.09922 89.700391 116.09961 90.900391 116.09961 L 95.099609 116.09961 C 96.099609 116.09961 96.900391 116.90039 96.900391 117.90039 L 96.900391 125.59961 C 96.900391 132.29961 95.900781 139.00078 93.800781 145.30078 C 92.700781 148.60078 91.499219 151.20078 90.199219 152.80078 C 87.399219 156.50078 84.099219 158.60078 83.699219 158.80078 C 80.999219 160.50078 78.000781 161.5 74.800781 162 C 74.300781 162.1 73.800391 162.09961 73.400391 162.09961 L 73.199219 162.09961 L 73.099609 162.09961 L 72.199219 162.09961 L 70.300781 162.09961 L 70.199219 162.09961 L 70.099609 162.09961 C 65.899609 161.79961 61.800781 160.30078 58.300781 157.80078 C 54.700781 155.40078 52.1 152 50.5 148 L 50.400391 147.90039 L 50.400391 147.80078 L 49.599609 145.30078 L 49.599609 145.19922 L 49.599609 145.09961 L 49.599609 144.90039 C 49.499609 144.50039 49.400781 144 49.300781 143.5 C 47.600781 134.2 50.699219 129.6 53.199219 126 C 54.899219 123.5 58.599219 120.49922 63.699219 117.19922 C 68.199219 114.29922 73.100781 112.00078 78.300781 110.30078 L 84 108.5 C 84.25 108.425 84.499219 108.39961 84.738281 108.41992 z M 115.74609 108.41992 C 115.98515 108.39963 116.23438 108.425 116.48438 108.5 L 122.18359 110.30078 C 127.38359 112.00078 132.28516 114.29922 136.78516 117.19922 C 141.88516 120.49922 145.58516 123.5 147.28516 126 C 149.78516 129.6 152.88359 134.2 151.18359 143.5 C 151.08359 144 150.98477 144.50039 150.88477 144.90039 L 150.88477 145.09961 L 150.88477 145.19922 L 150.88477 145.30078 L 150.08398 147.80078 L 150.08398 147.90039 L 149.98438 148 C 148.38437 152 145.78359 155.40078 142.18359 157.80078 C 138.68359 160.30078 134.58477 161.79961 130.38477 162.09961 L 130.28516 162.09961 L 130.18359 162.09961 L 128.28516 162.09961 L 127.38477 162.09961 L 127.28516 162.09961 L 127.08398 162.09961 C 126.68398 162.09961 126.18359 162.1 125.68359 162 C 122.48359 161.5 119.48516 160.50078 116.78516 158.80078 C 116.38516 158.60078 113.08516 156.50078 110.28516 152.80078 C 108.98516 151.20078 107.78359 148.60078 106.68359 145.30078 C 104.58359 139.00078 103.58398 132.29961 103.58398 125.59961 L 103.58398 117.90039 C 103.58398 116.90039 104.38477 116.09961 105.38477 116.09961 L 109.58398 116.09961 C 110.78398 116.09961 111.88438 116.09922 112.48438 114.69922 C 112.88438 113.69922 113.68359 111.39922 114.18359 109.69922 C 114.40859 108.94922 115.0289 108.48082 115.74609 108.41992 z "
   id="path22" />
</svg>