<?xml version="1.0" encoding="UTF-8"?>
<svg width="752pt" height="752pt" version="1.1" viewBox="0 0 752 752" xmlns="http://www.w3.org/2000/svg">
 <g fill="white">
  <path d="m218.14 395.73h315.72c7.0469 0 13.562-3.7617 17.086-9.8672 3.5273-6.1055 3.5273-13.625 0-19.73-3.5234-6.1055-10.039-9.8672-17.086-9.8672h-315.72c-7.0508 0-13.562 3.7617-17.09 9.8672-3.5234 6.1055-3.5234 13.625 0 19.73 3.5273 6.1055 10.039 9.8672 17.09 9.8672z"/>
  <path d="m533.86 237.88h-315.72c-7.0508 0-13.562 3.7578-17.09 9.8633-3.5234 6.1055-3.5234 13.629 0 19.734 3.5273 6.1055 10.039 9.8672 17.09 9.8672h315.72c7.0469 0 13.562-3.7617 17.086-9.8672 3.5273-6.1055 3.5273-13.629 0-19.734-3.5234-6.1055-10.039-9.8633-17.086-9.8633z"/>
  <path d="m218.14 514.13h315.72c7.0469 0 13.562-3.7617 17.086-9.8672 3.5273-6.1055 3.5273-13.625 0-19.73-3.5234-6.1055-10.039-9.8672-17.086-9.8672h-315.72c-7.0508 0-13.562 3.7617-17.09 9.8672-3.5234 6.1055-3.5234 13.625 0 19.73 3.5273 6.1055 10.039 9.8672 17.09 9.8672z"/>
 </g>
</svg>
